:SAMPLES-PER-SECOND 25
:FULLY-SPECIFIED
:DEGREES
499
root  2.62677 66.7325 40.0097 177.275 -25.5208 -177.08
RightUpLeg  -7.17601 7.16102 1.45279
RightLeg  20.2014 35.7798 12.5685
RightFoot  -24.0016 1.50478 14.9706
RightToes  2.84633e-005 7.89722e-005 -0.000426369
Spine  1.646 -0.720322 3.50586
Spine1  3.26614 -1.54491 6.36967
HEad  33.5135 -8.31067 -4.33594
LeftShoulder1  -3.88251e-019 0 -3.92111e-022
LeftArm  -35.421 4.28266 -84.1505
LeftForeArm  33.4783 2.09303 -0.292138
LeftHand  -0.693736 -4.31605 8.57188
RightShoulder  7.45443e-017 -2.42657e-020 1.96277e-018
RightArm  -28.2048 -17.7546 68.194
RightForeArm  27.8174 5.22001 5.59321
RightHand  -1.30039 9.15743 -10.7125
LeftUpLeg  -10.3274 -9.2434 4.70531
LeftLeg  14.9949 -11.2193 -1.6193
LeftFoot  -7.7034 0.102062 -1.7794
LeftToes  3.91355e-005 3.11907e-005 -4.10385e-006
500
root  2.02153 66.7544 39.9568 177.252 -23.7243 -177.043
RightUpLeg  -6.82636 7.75743 0.74655
RightLeg  20.054 35.1297 12.1524
RightFoot  -24.8572 1.54251 14.3813
RightToes  2.84633e-005 7.89722e-005 -0.000426369
Spine  1.61091 -0.851586 3.39672
Spine1  3.19072 -1.79472 6.08275
HEad  33.8818 -9.81067 -4.42714
LeftShoulder1  -3.88251e-019 0 -3.92111e-022
LeftArm  -34.6524 2.76063 -83.8886
LeftForeArm  32.9144 2.13504 -0.548757
LeftHand  -0.685883 -4.24826 8.53413
RightShoulder  7.45443e-017 -2.42657e-020 1.96277e-018
RightArm  -28.2327 -19.7325 67.7462
RightForeArm  25.5721 6.94016 6.42693
RightHand  -1.31657 9.12841 -10.8603
LeftUpLeg  -9.66922 -9.82036 3.98004
LeftLeg  15.3579 -8.66052 -1.23597
LeftFoot  -7.93477 0.0531636 -0.174017
LeftToes  3.91355e-005 3.11907e-005 -4.10385e-006
501
root  1.44293 66.7638 39.8888 177.239 -22.2316 -176.99
RightUpLeg  -6.50485 7.9125 0.0817974
RightLeg  19.4902 33.7714 11.2325
RightFoot  -24.6283 1.44801 13.814
RightToes  2.84633e-005 7.89722e-005 -0.000426369
Spine  1.56219 -0.884396 3.27328
Spine1  3.09223 -1.84848 5.82409
HEad  34.2174 -11.1272 -4.20895
LeftShoulder1  -3.88251e-019 0 -3.92111e-022
LeftArm  -33.7073 1.0456 -83.8693
LeftForeArm  32.5098 2.15702 -0.657631
LeftHand  -0.708748 -4.17637 8.87029
RightShoulder  7.45443e-017 -2.42657e-020 1.96277e-018
RightArm  -28.3296 -21.2884 67.2834
RightForeArm  24.8525 7.51109 6.85222
RightHand  -1.26034 9.24991 -10.3343
LeftUpLeg  -8.99336 -9.00848 3.32007
LeftLeg  15.4253 -7.90851 -1.17048
LeftFoot  -8.36321 0.0389888 0.434213
LeftToes  3.91355e-005 3.11907e-005 -4.10385e-006
502
root  0.889996 66.7651 39.8251 177.382 -21.0135 -177.069
RightUpLeg  -6.43344 7.80308 -0.819111
RightLeg  19.2078 32.5666 10.6575
RightFoot  -24.6055 1.40245 13.45
RightToes  2.84633e-005 7.89722e-005 -0.000426369
Spine  1.47378 -0.964073 3.1266
Spine1  2.9124 -1.99655 5.55073
HEad  34.4002 -11.8681 -3.77927
LeftShoulder1  -3.88251e-019 0 -3.92111e-022
LeftArm  -33 -0.419907 -83.8025
LeftForeArm  32.9996 2.14412 -0.636599
LeftHand  -0.730488 -4.14675 9.15959
RightShoulder  7.45443e-017 -2.42657e-020 1.96277e-018
RightArm  -28.5883 -22.227 66.9906
RightForeArm  25.4529 7.01045 6.48182
RightHand  -1.22799 9.29556 -10.051
LeftUpLeg  -8.49035 -8.32646 2.48735
LeftLeg  15.3844 -7.22357 -1.02998
LeftFoot  -8.37195 0.0176622 1.26152
LeftToes  3.91355e-005 3.11907e-005 -4.10385e-006
503
root  0.360943 66.7491 39.7452 177.409 -19.8414 -177.05
RightUpLeg  -6.24367 7.42149 -1.5677
RightLeg  18.6983 31.0933 9.80335
RightFoot  -24.2372 1.35958 13.4701
RightToes  2.84633e-005 7.89722e-005 -0.000426369
Spine  1.45332 -1.08415 3.00159
Spine1  2.86749 -2.22731 5.2805
HEad  34.449 -12.6094 -3.24915
LeftShoulder1  -3.88251e-019 0 -3.92111e-022
LeftArm  -32.4929 -1.47411 -83.516
LeftForeArm  33.9272 2.107 -0.500725
LeftHand  -0.72989 -4.20052 9.10434
RightShoulder  7.45443e-017 -2.42657e-020 1.96277e-018
RightArm  -29.0069 -22.6243 67.1145
RightForeArm  25.8034 5.94599 5.35114
RightHand  -1.22157 9.18488 -10.0725
LeftUpLeg  -7.98557 -8.16383 1.74978
LeftLeg  15.507 -6.03378 -0.801179
LeftFoot  -8.53095 -0.00164618 2.16457
LeftToes  3.91355e-005 3.11907e-005 -4.10385e-006
